HIERARCHY
ROOT Hips
{
  OFFSET 0 0.240689 0
  CHANNELS 6 Xposition Yposition Zposition Zrotation Xrotation Yrotation
  JOINT Bip01_Spine0
  {
    OFFSET 0 -24.7459 49.7988
    CHANNELS 6 Xposition Yposition Zposition Zrotation Xrotation Yrotation
    JOINT Bip01_Pelvis
    {
      OFFSET 0 0 0
      CHANNELS 6 Xposition Yposition Zposition Zrotation Xrotation Yrotation
      JOINT Bip01_Spine0_Tail
      {
        OFFSET -6.47486 -3.86022 0
        CHANNELS 6 Xposition Yposition Zposition Zrotation Xrotation Yrotation
        JOINT Bip01_Spine0_Tail1
        {
          OFFSET 10.3837 -0.00825882 0
          CHANNELS 6 Xposition Yposition Zposition Zrotation Xrotation Yrotation
          JOINT Bip01_Spine0_Tail2
          {
            OFFSET 10.3837 -0.00826263 0
            CHANNELS 6 Xposition Yposition Zposition Zrotation Xrotation Yrotation
            JOINT Bip01_Spine0_Tail3
            {
              OFFSET 10.3837 -0.00825882 0
              CHANNELS 6 Xposition Yposition Zposition Zrotation Xrotation Yrotation
              JOINT Bip01_Spine0_Tail4
              {
                OFFSET 10.3837 -0.00826263 0
                CHANNELS 6 Xposition Yposition Zposition Zrotation Xrotation Yrotation
                End Site
                {
                  OFFSET 0 0 0
                }
              }
            }
          }
        }
      }
      JOINT Bip01_R_Thigh
      {
        OFFSET 0 -1.52588e-005 -8.75617
        CHANNELS 6 Xposition Yposition Zposition Zrotation Xrotation Yrotation
        JOINT Bip01_R_Calf
        {
          OFFSET 19.7638 0 0
          CHANNELS 6 Xposition Yposition Zposition Zrotation Xrotation Yrotation
          JOINT Bip01_R_Foot
          {
            OFFSET 18.6534 0 0
            CHANNELS 6 Xposition Yposition Zposition Zrotation Xrotation Yrotation
            JOINT Bip01_R_Toe0
            {
              OFFSET 5.09145 13.9567 0
              CHANNELS 6 Xposition Yposition Zposition Zrotation Xrotation Yrotation
              JOINT Bip01_R_Toe01
              {
                OFFSET 4.28803 0 0
                CHANNELS 6 Xposition Yposition Zposition Zrotation Xrotation Yrotation
                JOINT Bip01_R_Toe02
                {
                  OFFSET 3.85801 0 0
                  CHANNELS 6 Xposition Yposition Zposition Zrotation Xrotation Yrotation
                  End Site
                  {
                    OFFSET 0 0 0
                  }
                }
              }
            }
          }
        }
      }
      JOINT Bip01_L_Thigh
      {
        OFFSET 0 1.52588e-005 8.75617
        CHANNELS 6 Xposition Yposition Zposition Zrotation Xrotation Yrotation
        JOINT Bip01_L_Calf
        {
          OFFSET 19.7638 0 0
          CHANNELS 6 Xposition Yposition Zposition Zrotation Xrotation Yrotation
          JOINT Bip01_L_Foot
          {
            OFFSET 18.6534 0 0
            CHANNELS 6 Xposition Yposition Zposition Zrotation Xrotation Yrotation
            JOINT Bip01_L_Toe0
            {
              OFFSET 5.09144 13.9567 0
              CHANNELS 6 Xposition Yposition Zposition Zrotation Xrotation Yrotation
              JOINT Bip01_L_Toe01
              {
                OFFSET 4.28802 0 0
                CHANNELS 6 Xposition Yposition Zposition Zrotation Xrotation Yrotation
                JOINT Bip01_L_Toe02
                {
                  OFFSET 3.85801 0 0
                  CHANNELS 6 Xposition Yposition Zposition Zrotation Xrotation Yrotation
                  End Site
                  {
                    OFFSET 0 0 0
                  }
                }
              }
            }
          }
        }
      }
      JOINT Bip01_Spine
      {
        OFFSET 9.14835 -0.00640869 -1.1e-005
        CHANNELS 6 Xposition Yposition Zposition Zrotation Xrotation Yrotation
        JOINT Bip01_Spine1
        {
          OFFSET 8.04366 -0.00638199 0
          CHANNELS 6 Xposition Yposition Zposition Zrotation Xrotation Yrotation
          JOINT Bip01_Spine2
          {
            OFFSET 8.04367 -0.00639343 0
            CHANNELS 6 Xposition Yposition Zposition Zrotation Xrotation Yrotation
            JOINT Bip01_Spine3
            {
              OFFSET 8.04304 -0.00831222 0
              CHANNELS 6 Xposition Yposition Zposition Zrotation Xrotation Yrotation
              JOINT Bip01_Neck
              {
                OFFSET 10.6685 1.06813 0
                CHANNELS 6 Xposition Yposition Zposition Zrotation Xrotation Yrotation
                JOINT Bip01_R_Clavicle
                {
                  OFFSET -3.21661 -4.89635 -9.04802
                  CHANNELS 6 Xposition Yposition Zposition Zrotation Xrotation Yrotation
                  JOINT Bip01_R_UpperArm
                  {
                    OFFSET 19.0492 0 0
                    CHANNELS 6 Xposition Yposition Zposition Zrotation Xrotation Yrotation
                    JOINT Bip01_R_Forearm
                    {
                      OFFSET 10.3706 0 0
                      CHANNELS 6 Xposition Yposition Zposition Zrotation Xrotation Yrotation
                      JOINT Bip01_R_Hand
                      {
                        OFFSET 22.8632 0 0
                        CHANNELS 6 Xposition Yposition Zposition Zrotation Xrotation Yrotation
                        JOINT Bip01_R_Finger0
                        {
                          OFFSET 6.48259 0.103651 0.504496
                          CHANNELS 6 Xposition Yposition Zposition Zrotation Xrotation Yrotation
                          JOINT Bip01_R_Finger01
                          {
                            OFFSET 3.66847 0 0
                            CHANNELS 6 Xposition Yposition Zposition Zrotation Xrotation Yrotation
                            End Site
                            {
                              OFFSET 0 0 0
                            }
                          }
                        }
                      }
                    }
                  }
                }
                JOINT Bip01_L_Clavicle
                {
                  OFFSET -3.21661 -4.89641 9.04797
                  CHANNELS 6 Xposition Yposition Zposition Zrotation Xrotation Yrotation
                  JOINT Bip01_L_UpperArm
                  {
                    OFFSET 19.0492 0 0
                    CHANNELS 6 Xposition Yposition Zposition Zrotation Xrotation Yrotation
                    JOINT Bip01_L_Forearm
                    {
                      OFFSET 10.3706 0 0
                      CHANNELS 6 Xposition Yposition Zposition Zrotation Xrotation Yrotation
                      JOINT Bip01_L_Hand
                      {
                        OFFSET 22.8631 0 0
                        CHANNELS 6 Xposition Yposition Zposition Zrotation Xrotation Yrotation
                        JOINT Bip01_L_Finger0
                        {
                          OFFSET 6.48257 0.103655 -0.504492
                          CHANNELS 6 Xposition Yposition Zposition Zrotation Xrotation Yrotation
                          JOINT Bip01_L_Finger01
                          {
                            OFFSET 3.66844 0 0
                            CHANNELS 6 Xposition Yposition Zposition Zrotation Xrotation Yrotation
                            End Site
                            {
                              OFFSET 0 0 0
                            }
                          }
                        }
                      }
                    }
                  }
                }
                JOINT Bip01_Neck1
                {
                  OFFSET 7.52459 -0.00656509 0
                  CHANNELS 6 Xposition Yposition Zposition Zrotation Xrotation Yrotation
                  JOINT Bip01_Neck2
                  {
                    OFFSET 8.4783 -0.00588226 0
                    CHANNELS 6 Xposition Yposition Zposition Zrotation Xrotation Yrotation
                    JOINT Bip01_Head
                    {
                      OFFSET 8.41606 0 0
                      CHANNELS 6 Xposition Yposition Zposition Zrotation Xrotation Yrotation
                      JOINT EyesBlue
                      {
                        OFFSET 0 0 0
                        CHANNELS 6 Xposition Yposition Zposition Zrotation Xrotation Yrotation
                        JOINT EyesBlue_2
                        {
                          OFFSET 0 -0.500007 0
                          CHANNELS 6 Xposition Yposition Zposition Zrotation Xrotation Yrotation
                          End Site
                          {
                            OFFSET 0 0 0
                          }
                        }
                      }
                      JOINT Bip01_Head2_Eyeleds
                      {
                        OFFSET 6.52751 7.61746 2.2e-005
                        CHANNELS 6 Xposition Yposition Zposition Zrotation Xrotation Yrotation
                        End Site
                        {
                          OFFSET 0 0 0
                        }
                      }
                      JOINT Bip01_Head_Muzzle
                      {
                        OFFSET 2.88628 13.9448 3.88994
                        CHANNELS 6 Xposition Yposition Zposition Zrotation Xrotation Yrotation
                        End Site
                        {
                          OFFSET 0 0 0
                        }
                      }
                      JOINT Bip01_Head1_Jaw
                      {
                        OFFSET 0.271065 1.32405 0
                        CHANNELS 6 Xposition Yposition Zposition Zrotation Xrotation Yrotation
                        JOINT _Bip01_Head11_TungeControler
                        {
                          OFFSET 4.61616 5.82872 0
                          CHANNELS 6 Xposition Yposition Zposition Zrotation Xrotation Yrotation
                          JOINT _Bip01_Ponytail3_tunge
                          {
                            OFFSET 5.17785 2.98805 0
                            CHANNELS 6 Xposition Yposition Zposition Zrotation Xrotation Yrotation
                            JOINT Bip01_Ponytail31
                            {
                              OFFSET 5.57569 0 0
                              CHANNELS 6 Xposition Yposition Zposition Zrotation Xrotation Yrotation
                              JOINT Bip01_Ponytail32
                              {
                                OFFSET 2.93165 0 0
                                CHANNELS 6 Xposition Yposition Zposition Zrotation Xrotation Yrotation
                                JOINT Bip01_Ponytail3Nub
                                {
                                  OFFSET 3.30155 0 0
                                  CHANNELS 6 Xposition Yposition Zposition Zrotation Xrotation Yrotation
                                  End Site
                                  {
                                    OFFSET 0 0 0
                                  }
                                }
                              }
                            }
                          }
                        }
                        JOINT Bip01_Head_JawNub
                        {
                          OFFSET 15.5776 -0.000389099 0
                          CHANNELS 6 Xposition Yposition Zposition Zrotation Xrotation Yrotation
                          End Site
                          {
                            OFFSET 0 0 0
                          }
                        }
                      }
                      JOINT Bip01_Ponytail2
                      {
                        OFFSET 9.40334 1.03973 -6.51764
                        CHANNELS 6 Xposition Yposition Zposition Zrotation Xrotation Yrotation
                        JOINT Bip01_Ponytail21
                        {
                          OFFSET 2.77018 -0.00640106 1.33514e-005
                          CHANNELS 6 Xposition Yposition Zposition Zrotation Xrotation Yrotation
                          End Site
                          {
                            OFFSET 0 0 0
                          }
                        }
                      }
                      JOINT Bip01_Ponytail1
                      {
                        OFFSET 9.40368 1.03969 6.51768
                        CHANNELS 6 Xposition Yposition Zposition Zrotation Xrotation Yrotation
                        JOINT Bip01_Ponytail11
                        {
                          OFFSET 2.77018 -0.00640487 0
                          CHANNELS 6 Xposition Yposition Zposition Zrotation Xrotation Yrotation
                          End Site
                          {
                            OFFSET 0 0 0
                          }
                        }
                      }
                    }
                  }
                }
              }
            }
          }
        }
      }
    }
  }
}
MOTION
Frames:	4
Frame Time:	0.0333333
0 0 -1e-006 -0 -90 -0 -0.262125 -24.4305 50.5543 90 3.61921e-005 88.7475 0 0 0 -90 -3.50835e-015 -90 -6.46539 -3.85818 0.440696 -179.37 -0.0491571 -3.90472 10.3859 -0.007869 8.80107e-010 17.68 -1.18297e-005 -4.30637e-005 10.3894 -0.005504 5e-005 48.1711 0.000423981 0.000162165 10.3905 -0.003973 0.000149 60.8018 0.000798202 0.00020545 10.3902 -0.004386 4.7e-005 57.2558 0.00194384 0.000567132 9e-006 -1.5e-005 -8.75617 -93.557 -12.0245 174.843 19.7638 1.06581e-014 -1e-006 -58.6733 0.000491861 0.00164082 18.6534 3e-006 9.23706e-014 -24.548 2.03826 7.65881 5.09143 13.9567 4.15657e-006 112.223 3.02219 1.80669 4.288 -1e-006 1e-006 53.6716 8.4327 1.28952 3.85799 5.06262e-014 -1e-006 -45 -5.84484e-006 8.82913e-006 -1.5e-005 7e-006 8.75617 -107.497 -4.36684 -179.043 19.7638 3e-006 -3.90799e-014 -62.1016 0.000373712 0.001425 18.6534 3e-006 -2.66454e-014 -22.6416 0.826061 -5.68156 5.09143 13.9567 -8.018e-007 112.82 -0.0368494 4.93131 4.288 -1e-006 4.26326e-014 51.474 -6.03006 0.263551 3.85799 1.31628e-012 -2e-006 -45 1.92098e-005 1.38143e-005 9.12711 -0.006381 -0.622026 0.212594 0.0153499 3.95436 8.04359 -0.006286 9.99995e-005 0.053948 0.000495525 0.0542406 8.04366 -0.006282 0.000102999 -0.0165518 0.0018061 0.055608 8.04298 -0.008216 1.49993e-005 -4.23471 0.000229184 0.0556759 10.6686 1.06826 0.000159834 -24.3149 0.000300377 0.000508333 -2.21951 -5.4233 -9.04791 -155.726 -85.4166 109.853 19.0492 -2.4869e-014 -3e-006 95.9701 14.5413 -98.621 10.3706 -8.17124e-014 1e-006 -60.1596 0.000415671 0.00164677 22.8631 -1e-006 -1.59872e-014 -7.80885 28.0861 1.12664 6.48256 0.103655 0.504496 -80.8341 0.400202 -15.4925 3.66843 1e-006 1e-006 34.6071 -2.51205e-005 1.91907e-005 -2.21933 -5.42316 9.04784 -155.73 85.4169 -110.132 19.0492 2.4869e-014 3e-006 92.8125 -15.8348 91.2841 10.3706 1.06581e-014 -5.32907e-015 -59.171 0.000128355 0.000476233 22.8631 -3e-006 4.26326e-014 -1.11213 -15.2212 6.56051 6.48256 0.103653 -0.504496 -85.953 -1.81532 15.3925 3.66843 1e-006 -2e-006 40.107 1.40806e-005 -9.22621e-006 7.52401 -0.006366 7.00003e-005 -17.5916 0.000579468 0.000793846 8.47532 -0.006572 2.40001e-005 2.51481 0.000948298 0.000907966 8.41604 3.55271e-015 -2.22045e-015 -71.2239 0.198182 0.0890618 -7e-006 7e-006 -4e-006 -23.1098 1.37701e-015 90 -2.3281e-007 -0.500004 7.65748e-008 3.20582e-008 90 90 0 0 0 -113.549 1.52588e-005 -180 3.25759 13.9971 3.88993 -22.9892 1.37021e-015 90 0 0 0 -88.8666 -7.01671e-015 -180 0 0 0 -108.721 -2.05599e-006 -2.23841e-005 0 0 0 120.523 0.946036 -2.55005 0 0 0 -0.16845 2.08972e-008 -3.5609e-009 0 0 0 -22.6319 4.69561e-006 -4.74116e-007 0 0 0 -26.1943 -1.43903e-005 -2.5747e-006 15.5776 -0.000396 -6.99998e-006 -3.18055e-015 0 3.97569e-016 9.40327 1.03976 -6.5174 -19.6209 15.6666 20.7987 2.77015 -0.006393 4.9984e-006 2.69906 -4.14659e-005 -0.0361741 9.40361 1.03978 6.5176 -19.6198 -15.6668 -20.797 2.77019 -0.006393 8.00144e-006 2.69898 0.00253745 0.0375397 
0 0 -1e-006 -0 -90 -0 -0.262125 -24.2789 50.5548 90 -4.93013e-005 88.7765 0 0 0 -90 -3.50835e-015 -90 -6.46539 -3.85818 0.440696 -179.37 -0.0493712 -3.90492 10.3859 -0.007869 8.6852e-010 17.68 -1.17543e-005 -4.30894e-005 10.3894 -0.005504 5e-005 47.483 0.000419945 0.000165358 10.3905 -0.003973 0.000149 60.1135 0.000796267 0.000215385 10.3902 -0.004386 4.7e-005 56.5675 0.00193401 0.000589937 9e-006 -1.5e-005 -8.75617 -93.7268 -11.968 174.717 19.7638 0 -1e-006 -58.6402 0.000492841 0.00164054 18.6534 3e-006 7.81597e-014 -25.6349 1.80042 7.74755 5.09143 13.9567 4.10313e-006 113.146 3.05087 1.75779 4.288 -1e-006 1e-006 53.6716 8.4327 1.28952 3.85799 6.4837e-014 -1e-006 -45 -5.87202e-006 8.79481e-006 -1.5e-005 7e-006 8.75617 -107.663 -4.3892 -179.024 19.7638 3e-006 -4.08562e-014 -62.2089 0.000371043 0.0014257 18.6534 3e-006 -3.01981e-014 -23.455 0.947765 -5.69634 5.09143 13.9567 -8.37199e-007 113.609 -0.0225002 4.95484 4.288 -1e-006 4.79616e-014 51.474 -6.03006 0.263551 3.85799 1.31362e-012 -2e-006 -45 1.94871e-005 1.40721e-005 9.12711 -0.006381 -0.622026 0.170893 0.0124676 3.95442 8.04359 -0.006286 9.99995e-005 0.126211 0.000563915 0.0543555 8.04366 -0.006282 0.000102999 0.176972 0.00199256 0.0556024 8.04298 -0.008216 1.49991e-005 -4.0947 0.000367216 0.0556664 10.6686 1.06826 0.000159835 -22.0818 0.000316516 0.000505981 -2.42664 -5.32675 -9.04791 -157.958 -85.4165 109.854 19.0492 -1.95399e-014 -3e-006 95.7628 13.988 -98.6564 10.3706 -8.52651e-014 1e-006 -61.0054 0.000391467 0.00165302 22.8631 -1e-006 -3.55272e-015 -9.08215 28.0648 1.74287 6.48256 0.103655 0.504496 -79.7417 0.0971695 -15.4936 3.66843 1e-006 1e-006 34.6071 -2.4985e-005 1.91175e-005 -2.42645 -5.32665 9.04784 -157.963 85.4169 -110.133 19.0492 2.66454e-014 3e-006 92.6649 -15.1565 91.2072 10.3706 -8.88178e-015 -5.32907e-015 -60.0513 0.000121085 0.000478221 22.8631 -3e-006 3.90799e-014 -2.63336 -15.4861 6.11477 6.48256 0.103653 -0.504496 -84.4941 -1.41325 15.4336 3.66843 1e-006 -2e-006 40.107 1.37009e-005 -8.94966e-006 7.52401 -0.006366 7.00003e-005 -19.8359 0.000547571 0.000815766 8.47532 -0.006572 2.40001e-005 0.270356 0.000911835 0.000944379 8.41604 3.55271e-015 1.77636e-015 -61.6778 0.206323 0.062037 -7e-006 7e-006 -4e-006 -23.1098 1.37701e-015 90 -2.32033e-007 -0.500004 9.93734e-008 -40.6592 90 130.659 0 0 0 -113.549 1.52588e-005 -180 2.8863 13.9448 3.88993 -22.9892 1.37021e-015 90 0 0 0 -89.9389 -1.52588e-005 -180 0 0 0 -106.408 -2.53207e-006 -2.3624e-005 0 0 0 117.89 1.13476 -3.06026 0 0 0 -0.16845 2.87244e-008 -6.53108e-009 0 0 0 -22.6319 4.87218e-006 -8.65887e-007 0 0 0 -26.1943 -1.18693e-005 -3.06744e-006 15.5776 -0.000396 -6.99997e-006 3.18055e-015 -3.97569e-016 -1.59028e-015 9.40327 1.03976 -6.5174 -19.146 17.0781 20.3418 2.77015 -0.006393 4.99879e-006 2.44662 0.00164307 -0.000470791 9.40361 1.03978 6.5176 -19.1448 -17.0774 -20.3398 2.77019 -0.006393 8.00105e-006 2.44635 0.000871229 0.00242179 
0 0 -1e-006 -0 -90 -0 -0.262125 -24.1273 50.5553 89.9999 -0.00012678 88.8055 0 0 0 -90 -3.50835e-015 -90 -6.46539 -3.85818 0.440696 -179.37 -0.0495854 -3.90512 10.3859 -0.007869 8.56741e-010 17.68 -1.16779e-005 -4.31155e-005 10.3894 -0.005504 5e-005 46.7948 0.000415908 0.00016849 10.3905 -0.003973 0.000149 59.4252 0.000794207 0.000225302 10.3902 -0.004386 4.7e-005 55.8793 0.0019257 0.000612626 9e-006 -1.5e-005 -8.75617 -93.8964 -11.9116 174.591 19.7638 0 -1e-006 -58.6072 0.00049382 0.00164026 18.6534 3e-006 7.81597e-014 -26.721 1.56268 7.83639 5.09143 13.9567 4.03916e-006 114.069 3.07876 1.70843 4.288 -1e-006 1e-006 53.6716 8.4327 1.28952 3.85799 4.84057e-014 -1e-006 -45 -5.90067e-006 8.75979e-006 -1.5e-005 7e-006 8.75617 -107.829 -4.41155 -179.004 19.7638 3e-006 -4.44089e-014 -62.3162 0.000368372 0.00142639 18.6534 3e-006 -3.19744e-014 -24.2683 1.06946 -5.71114 5.09143 13.9567 -8.75891e-007 114.398 -0.00747702 4.9789 4.288 -1e-006 4.26326e-014 51.474 -6.03006 0.263551 3.85799 1.34559e-012 -2e-006 -45 1.97733e-005 1.43377e-005 9.12711 -0.006381 -0.622026 0.129164 0.00958333 3.95448 8.04359 -0.006286 9.99995e-005 0.198447 0.000632573 0.0544703 8.04366 -0.006282 0.000102999 0.370485 0.00217898 0.0555971 8.04298 -0.008216 1.49989e-005 -3.95468 0.000504993 0.0556585 10.6686 1.06826 0.000159838 -19.8487 0.000333078 0.000503186 -2.63376 -5.2302 -9.04791 -160.19 -85.4164 109.856 19.0492 -2.84217e-014 -3e-006 95.5534 13.4388 -98.6736 10.3706 -1.1724e-013 1e-006 -61.8512 0.000367172 0.00165891 22.8631 -1e-006 -3.55272e-015 -10.355 28.0407 2.35882 6.48256 0.103655 0.504496 -78.6494 -0.205864 -15.4952 3.66843 1e-006 1e-006 34.6071 -2.4848e-005 1.90443e-005 -2.63357 -5.23013 9.04784 -160.195 85.4169 -110.133 19.0492 2.30926e-014 3e-006 92.5186 -14.4782 91.1325 10.3706 -5.32907e-015 0 -60.9316 0.000113788 0.000480106 22.8631 -3e-006 3.01981e-014 -4.15876 -15.7504 5.66802 6.48256 0.103653 -0.504496 -83.0355 -1.01019 15.4645 3.66843 1e-006 -2e-006 40.107 1.33165e-005 -8.66901e-006 7.52401 -0.006366 7.00004e-005 -22.0803 0.000514788 0.00083638 8.47532 -0.006572 2.40001e-005 -1.97411 0.000873981 0.00097934 8.41604 7.10543e-015 -2.66454e-015 -52.1317 0.214473 0.035006 -7e-006 7e-006 -4e-006 -23.1098 1.37701e-015 90 -2.31369e-007 -0.500004 1.1227e-007 -36.3673 90 126.367 0 0 0 -113.549 1.52588e-005 -180 2.8863 13.9448 3.88993 -22.9892 1.37022e-015 90 0 0 0 -89.9389 -1.52588e-005 -180 0 0 0 -104.094 -2.82994e-006 -2.61139e-005 0 0 0 115.26 1.32321 -3.57056 0 0 0 -0.16845 4.11738e-008 -1.16387e-008 0 0 0 -22.6319 -1.40825e-005 -1.53919e-006 0 0 0 -26.1943 6.07538e-006 4.5866e-006 15.5776 -0.000396 -6.99995e-006 3.18055e-015 9.93923e-017 -0 9.40327 1.03976 -6.5174 -18.6483 18.4971 19.891 2.77015 -0.006393 4.9991e-006 2.19417 0.00301452 0.0352852 9.40361 1.03978 6.5176 -18.6469 -18.4955 -19.8885 2.77019 -0.006393 8.00072e-006 2.19371 -0.000486841 -0.0327527 
0 0 -1e-006 -0 -90 -0 -0.262063 -24.2212 50.5549 90 -0.000127317 88.4786 0 0 0 -90 -3.50835e-015 -90 -6.46539 -3.85818 0.440696 -179.37 -0.0497985 -3.90531 10.3859 -0.007869 9.79996e-010 17.68 -1.24706e-005 -4.28428e-005 10.3894 -0.005504 5e-005 49.2417 0.000426575 0.000153962 10.3905 -0.003973 0.000149 61.8721 0.000805443 0.000192368 10.3902 -0.004386 4.7e-005 58.3258 0.00189563 0.000493497 9e-006 -1.5e-005 -8.75617 -93.8255 -11.8965 174.583 19.7638 0 -1e-006 -58.8248 0.000487604 0.00164214 18.6534 3e-006 8.88179e-014 -26.7671 1.58367 7.82849 5.09143 13.9567 3.9624e-006 114.078 3.07901 1.70798 4.288 -1e-006 1e-006 53.6716 8.4327 1.28952 3.85799 7.72715e-014 -1e-006 -45 -5.60751e-006 9.0338e-006 -1.5e-005 7e-006 8.75617 -107.724 -4.41244 -178.995 19.7638 3e-006 -3.90799e-014 -62.4441 0.000365193 0.0014272 18.6534 3e-006 -3.01981e-014 -24.371 1.0756 -5.70148 5.09143 13.9567 -8.71775e-007 114.406 -0.00780116 4.97936 4.288 -1e-006 4.61853e-014 51.474 -6.03006 0.263551 3.85799 1.33937e-012 -2e-006 -45 1.95436e-005 1.41162e-005 9.12711 -0.006381 -0.622026 0.658089 0.0461397 3.95392 8.04359 -0.006286 9.99992e-005 0.687106 0.00110032 0.054888 8.04366 -0.006282 0.000102999 0.583313 0.00238341 0.0554981 8.04298 -0.008216 1.49981e-005 -3.85198 0.000615805 0.0555606 10.6686 1.06826 0.000159865 -19.3917 0.000337518 0.000504507 -2.67596 -5.20993 -9.04791 -160.647 -85.4165 109.855 19.0492 -2.66454e-014 -3e-006 95.0465 12.2716 -98.934 10.3706 -1.1191e-013 1e-006 -65.0338 0.000274758 0.00167756 22.8631 -1e-006 -3.55272e-015 -11.7604 27.8242 3.69615 6.48256 0.103655 0.504496 -76.4511 -0.813753 -15.4615 3.66843 1e-006 1e-006 34.6071 -2.43781e-005 1.87585e-005 -2.67576 -5.20987 9.04784 -160.653 85.417 -110.133 19.0492 3.55271e-014 3e-006 92.3427 -13.0864 91.1527 10.3706 7.10543e-015 -1.77636e-015 -64.1375 8.68384e-005 0.00048582 22.8631 -3e-006 4.61853e-014 -6.02825 -16.092 4.78128 6.48256 0.103653 -0.504496 -80.0965 -0.19611 15.4954 3.66843 1e-006 -2e-006 40.107 1.28044e-005 -8.27308e-006 7.52401 -0.006366 7.00004e-005 -21.9509 0.000516525 0.000835105 8.47532 -0.006572 2.40001e-005 -1.84476 0.000876192 0.000977361 8.41604 0 -4.44089e-016 -59.133 0.208971 0.0552661 -7e-006 7e-006 -4e-006 -23.1098 1.37701e-015 90 -2.31785e-007 -0.500004 1.04767e-007 -38.7651 90 128.765 0 0 0 -113.549 1.52588e-005 -180 2.8863 13.9448 3.88993 -22.9892 1.37022e-015 90 0 0 0 -89.9389 -1.52588e-005 -180 0 0 0 -101.78 2.24584e-005 -1.83907e-005 0 0 0 112.634 1.51134 -4.08097 0 0 0 -0.16845 3.43163e-008 -8.31196e-009 0 0 0 -22.6319 6.85254e-007 -1.10113e-006 0 0 0 -26.1943 -7.75021e-006 -1.46833e-006 15.5776 -0.000396 -6.99997e-006 -2.75869e-033 1.98785e-016 7.95139e-016 9.40327 1.03976 -6.5174 -18.4971 18.9195 19.751 2.77015 -0.006393 4.9989e-006 2.11661 0.00336995 0.0461956 9.40361 1.03978 6.5176 -18.4955 -18.9176 -19.7485 2.77019 -0.006393 8.00094e-006 2.11601 -0.000845986 -0.0436741 
